<?xml version="1.0" encoding="UTF-8" standalone="no"?>
<!DOCTYPE svg PUBLIC "-//W3C//DTD SVG 1.1//EN" "http://www.w3.org/Graphics/SVG/1.1/DTD/svg11.dtd">
<svg version="1.1" xmlns="http://www.w3.org/2000/svg" xmlns:xlink="http://www.w3.org/1999/xlink" preserveAspectRatio="xMidYMid meet" viewBox="0 0 32 32" width="32" height="32"><defs><path d="M2.11 29.46C2.11 29.46 2.11 29.46 2.11 29.46C2.11 29.45 2.12 29.45 2.12 29.45C2.13 29.45 2.16 29.45 2.16 29.45C2.17 29.45 2.17 29.45 2.17 29.46C2.17 29.47 2.16 29.5 2.15 29.5C2.14 29.55 2.12 29.59 2.1 29.63C2.1 29.64 2.1 29.64 2.1 29.64C2.1 29.64 2.09 29.65 2.09 29.65C2.08 29.65 2.07 29.65 2.06 29.65C2.05 29.65 2.04 29.64 2.04 29.64C2.03 29.62 2.03 29.6 2.02 29.59C2.01 29.55 1.99 29.51 1.98 29.47C1.97 29.47 1.97 29.46 1.97 29.46C1.97 29.45 1.97 29.45 1.98 29.45C1.99 29.45 2.01 29.45 2.02 29.45C2.03 29.45 2.03 29.46 2.03 29.46C2.04 29.47 2.04 29.48 2.04 29.49C2.05 29.52 2.06 29.56 2.07 29.59C2.07 29.59 2.07 29.59 2.07 29.59C2.07 29.59 2.07 29.58 2.08 29.58C2.09 29.54 2.1 29.5 2.11 29.46Z" id="cYmd7T3R9"></path><path d="M2.11 29.46C2.11 29.46 2.11 29.46 2.11 29.46C2.11 29.45 2.12 29.45 2.12 29.45C2.13 29.45 2.16 29.45 2.16 29.45C2.17 29.45 2.17 29.45 2.17 29.46C2.17 29.47 2.16 29.5 2.15 29.5C2.14 29.55 2.12 29.59 2.1 29.63C2.1 29.64 2.1 29.64 2.1 29.64C2.1 29.64 2.09 29.65 2.09 29.65C2.08 29.65 2.07 29.65 2.06 29.65C2.05 29.65 2.04 29.64 2.04 29.64C2.03 29.62 2.03 29.6 2.02 29.59C2.01 29.55 1.99 29.51 1.98 29.47C1.97 29.47 1.97 29.46 1.97 29.46C1.97 29.45 1.97 29.45 1.98 29.45C1.99 29.45 2.01 29.45 2.02 29.45C2.03 29.45 2.03 29.46 2.03 29.46C2.04 29.47 2.04 29.48 2.04 29.49C2.05 29.52 2.06 29.56 2.07 29.59C2.07 29.59 2.07 29.59 2.07 29.59C2.07 29.59 2.07 29.58 2.08 29.58C2.09 29.54 2.1 29.5 2.11 29.46Z" id="a28rTTyQzC"></path><path d="M-49.25 9.46C-47.28 9.46 -46.3 10.45 -46.3 12.41C-46.3 28.08 -46.3 36.78 -46.3 38.52C-46.3 40.48 -47.28 41.46 -49.25 41.46C-64.92 41.46 -73.62 41.46 -75.36 41.46C-77.32 41.46 -78.3 40.48 -78.3 38.52C-78.3 22.85 -78.3 14.15 -78.3 12.41C-78.3 10.45 -77.32 9.46 -75.36 9.46C-59.69 9.46 -50.99 9.46 -49.25 9.46Z" id="e4yLDuwHjX"></path><path d="M6.17 11.88C5.73 11.88 5.38 11.52 5.38 11.08C5.38 10.64 5.73 10.29 6.17 10.29C6.61 10.29 10.13 10.29 10.57 10.29C11.01 10.29 11.36 10.64 11.36 11.08C11.36 11.52 11.01 11.88 10.57 11.88C9.69 11.88 6.61 11.88 6.17 11.88Z" id="cXacPpJZg"></path><path d="M14.94 10.88C14.94 7.47 14.94 5.58 14.94 5.2C14.94 4.51 15.77 4.16 16.26 4.65C17.02 5.41 20.83 9.19 27.7 16C20.83 22.81 17.02 26.59 16.26 27.35C15.77 27.84 14.94 27.49 14.94 26.8C14.94 26.42 14.94 24.53 14.94 21.12L20.2 16L14.94 10.88Z" id="c2olsmkJI5"></path><path d="M15.87 3.64L15.95 3.65L16.02 3.66L16.1 3.68L16.17 3.7L16.24 3.72L16.31 3.75L16.38 3.78L16.45 3.81L16.51 3.85L16.58 3.89L16.64 3.94L16.7 3.98L16.76 4.03L16.82 4.09L28.25 15.44L28.28 15.47L28.31 15.5L28.33 15.53L28.35 15.56L28.37 15.59L28.39 15.63L28.41 15.66L28.43 15.7L28.44 15.73L28.45 15.77L28.46 15.81L28.47 15.84L28.48 15.88L28.48 15.92L28.49 15.96L28.49 16L28.49 16.04L28.48 16.08L28.48 16.12L28.47 16.16L28.46 16.19L28.45 16.23L28.44 16.27L28.43 16.3L28.41 16.34L28.39 16.37L28.37 16.41L28.35 16.44L28.33 16.47L28.31 16.5L28.28 16.53L28.25 16.56L16.82 27.91L16.76 27.97L16.7 28.02L16.64 28.06L16.58 28.11L16.51 28.15L16.45 28.19L16.38 28.22L16.31 28.25L16.24 28.28L16.17 28.3L16.09 28.32L16.02 28.34L15.95 28.35L15.87 28.36L15.79 28.37L15.72 28.37L15.56 28.36L15.4 28.34L15.25 28.3L15.11 28.25L14.97 28.18L14.84 28.1L14.72 28.01L14.6 27.91L14.5 27.8L14.41 27.68L14.33 27.55L14.27 27.41L14.21 27.27L14.18 27.12L14.15 26.96L14.14 26.8L14.14 21.71L6.17 21.71L6.09 21.71L6.01 21.69L5.94 21.67L5.86 21.65L5.79 21.61L5.73 21.57L5.67 21.53L5.61 21.48L5.56 21.42L5.51 21.36L5.47 21.3L5.44 21.23L5.41 21.15L5.4 21.08L5.38 21L5.38 20.92L5.38 20.84L5.4 20.76L5.41 20.68L5.44 20.61L5.47 20.54L5.51 20.47L5.56 20.41L5.61 20.36L5.67 20.31L5.73 20.26L5.79 20.22L5.86 20.19L5.94 20.16L6.01 20.14L6.09 20.13L6.17 20.12L14.83 20.12L19.07 16L14.38 11.44L14.36 11.41L14.33 11.38L14.3 11.35L14.28 11.32L14.26 11.29L14.24 11.25L14.22 11.22L14.21 11.18L14.19 11.15L14.18 11.11L14.17 11.07L14.16 11.03L14.15 10.99L14.15 10.95L14.14 10.92L14.14 10.88L14.14 5.2L14.15 5.04L14.18 4.88L14.21 4.73L14.27 4.59L14.33 4.45L14.41 4.32L14.5 4.2L14.6 4.09L14.72 3.99L14.84 3.9L14.97 3.82L15.11 3.75L15.25 3.7L15.4 3.66L15.56 3.64L15.72 3.63L15.79 3.63L15.87 3.64ZM20.76 15.43L20.8 15.47L20.83 15.52L20.87 15.57L20.9 15.61L20.92 15.67L20.94 15.72L20.96 15.77L20.98 15.83L20.99 15.88L20.99 15.94L21 16L20.99 16.06L20.99 16.12L20.98 16.17L20.96 16.23L20.94 16.28L20.92 16.33L20.9 16.39L20.87 16.43L20.83 16.48L20.8 16.53L20.76 16.57L15.73 21.46L15.73 26.76L26.57 16L15.73 5.24L15.73 10.54L20.76 15.43Z" id="c3YxNLWM3"></path><path d="M7.89 16.79C7.45 16.79 7.1 16.44 7.1 16C7.1 15.56 7.45 15.21 7.89 15.21C8.65 15.21 14.69 15.21 15.44 15.21C15.88 15.21 16.23 15.56 16.23 16C16.23 16.44 15.88 16.79 15.44 16.79C13.93 16.79 8.65 16.79 7.89 16.79Z" id="cuBpQJ7eS"></path><path d="M14.41 10.99L14.4 14.65C14.22 14.14 14.12 13.86 14.1 13.8C14.1 13.8 14.1 13.8 14.1 13.8C14.06 14.62 13.75 21.14 13.71 21.96C14.09 23.04 14.3 23.62 14.3 23.62C14.3 23.63 14.52 23.64 14.79 23.65C15.58 23.69 16.58 23.78 17.33 23.87C17.5 23.89 17.65 23.9 17.66 23.89C17.67 23.89 17.67 20.15 17.67 15.6C17.67 15.05 17.67 12.29 17.66 7.32L16.04 7.32L14.41 7.32L14.41 10.99Z" id="a9bTYHaZF"></path><path d="M8.54 15.6C8.54 20.16 8.54 23.89 8.55 23.9C8.55 23.9 8.83 23.87 9.17 23.84C9.51 23.8 9.98 23.75 10.21 23.73C10.57 23.7 11.65 23.63 11.77 23.63C11.81 23.63 11.81 23.44 11.81 20.12C11.81 19.89 11.82 18.72 11.82 16.61C11.97 17.05 12.06 17.3 12.08 17.35C12.12 17.46 12.13 17.49 12.17 17.6C12.21 16.79 12.52 10.26 12.56 9.45C12.48 9.21 12.52 9.34 12.42 9.07C12.11 8.17 11.84 7.41 11.82 7.37C11.82 7.37 11.82 7.35 11.8 7.31L10.17 7.31L8.54 7.31C8.54 12.28 8.54 15.05 8.54 15.6Z" id="c2vaTdEb6B"></path><path d="M8.54 11.96C10.5 17.18 11.59 20.08 11.81 20.66C11.81 20.46 11.81 20.35 11.81 20.12C11.81 19.89 11.82 18.72 11.82 16.61C11.97 17.05 12.06 17.3 12.08 17.35C13.52 21.43 14.3 23.62 14.3 23.62C14.3 23.63 14.52 23.64 14.79 23.65C15.58 23.69 16.58 23.78 17.33 23.87C17.5 23.89 17.65 23.9 17.66 23.89C17.67 23.89 17.67 22.06 17.67 19.48C17.45 18.85 16.37 15.73 14.41 10.1L14.41 10.99L14.4 14.65C14.22 14.14 14.12 13.86 14.1 13.8C13.81 12.97 13.61 12.42 12.42 9.07C12.11 8.17 11.84 7.41 11.82 7.37C11.82 7.37 11.82 7.35 11.8 7.31L10.17 7.31L8.54 7.31L8.54 11.96Z" id="a1GHYxxWHV"></path><radialGradient id="gradientajyqrhMUN" gradientUnits="userSpaceOnUse" cx="12.95" cy="15.51" dx="6.92" dy="0.9" r="15.81"><stop style="stop-color: #000000;stop-opacity: 1" offset="0%"></stop><stop style="stop-color: #000000;stop-opacity: 0" offset="100%"></stop></radialGradient><path d="M11.82 16.62L11.82 16.61C11.97 17.05 12.06 17.3 12.08 17.35C13.52 21.43 14.3 23.62 14.3 23.62C14.3 23.63 14.52 23.64 14.79 23.65C15.58 23.69 16.58 23.78 17.33 23.87C17.5 23.89 17.65 23.9 17.66 23.89C17.44 23.28 16.36 20.2 14.4 14.65L14.4 14.65C14.22 14.14 14.12 13.86 14.1 13.8C13.81 12.97 13.61 12.42 12.42 9.07C12.11 8.17 11.84 7.41 11.82 7.37C11.82 7.37 11.82 7.35 11.8 7.31L10.17 7.31L8.54 7.31L11.82 16.62Z" id="g7a7q4T1Id"></path><path d="M14.41 10.98L14.4 14.64C14.22 14.13 14.12 13.85 14.1 13.79C14.1 13.79 14.1 13.79 14.1 13.79C14.06 14.61 13.75 21.13 13.71 21.95C14.09 23.03 14.3 23.61 14.3 23.61C14.3 23.61 14.52 23.63 14.79 23.64C15.58 23.68 16.58 23.77 17.33 23.86C17.5 23.88 17.65 23.89 17.66 23.88C17.67 23.88 17.67 20.14 17.67 15.59C17.67 15.04 17.67 12.28 17.66 7.31L16.04 7.31L14.41 7.31L14.41 10.98Z" id="g34DpY9lkG"></path><path d="M8.54 15.6C8.54 20.16 8.54 23.89 8.55 23.9C8.55 23.9 8.83 23.87 9.17 23.84C9.51 23.8 9.98 23.75 10.21 23.73C10.57 23.7 11.65 23.63 11.77 23.63C11.81 23.63 11.81 23.44 11.81 20.12C11.81 19.89 11.82 18.72 11.82 16.61C11.97 17.05 12.06 17.3 12.08 17.35C12.12 17.46 12.13 17.49 12.17 17.6C12.21 16.79 12.52 10.26 12.56 9.45C12.48 9.21 12.52 9.34 12.42 9.07C12.11 8.17 11.84 7.41 11.82 7.37C11.82 7.37 11.82 7.35 11.8 7.31L10.17 7.31L8.54 7.31C8.54 12.28 8.54 15.05 8.54 15.6Z" id="afmZwXN2M"></path><path d="M11.82 16.62L11.82 16.61C11.97 17.05 12.06 17.3 12.08 17.35C13.52 21.43 14.3 23.62 14.3 23.62C14.3 23.63 14.52 23.64 14.79 23.65C15.58 23.69 16.58 23.78 17.33 23.87C17.5 23.89 17.65 23.9 17.66 23.89C17.44 23.28 16.36 20.2 14.4 14.65L14.4 14.65C14.22 14.14 14.12 13.86 14.1 13.8C13.81 12.97 13.61 12.42 12.42 9.07C12.11 8.17 11.84 7.41 11.82 7.37C11.82 7.37 11.82 7.35 11.8 7.31L10.17 7.31L8.54 7.31L11.82 16.62Z" id="c1BSglSnrs"></path></defs><g><g><g><use xlink:href="#cYmd7T3R9" opacity="1" fill="#232f3e" fill-opacity="1"></use><g><use xlink:href="#cYmd7T3R9" opacity="1" fill-opacity="0" stroke="#000000" stroke-width="1" stroke-opacity="0"></use></g></g><g><use xlink:href="#a28rTTyQzC" opacity="1" fill="#000000" fill-opacity="0"></use><g><use xlink:href="#a28rTTyQzC" opacity="1" fill-opacity="0" stroke="#000000" stroke-width="1" stroke-opacity="0"></use></g></g><g><use xlink:href="#e4yLDuwHjX" opacity="1" fill="#000000" fill-opacity="1"></use><g><use xlink:href="#e4yLDuwHjX" opacity="1" fill-opacity="0" stroke="#000000" stroke-width="0" stroke-opacity="0"></use></g></g><g><use xlink:href="#cXacPpJZg" opacity="1" fill="#000000" fill-opacity="1"></use><g><use xlink:href="#cXacPpJZg" opacity="1" fill-opacity="0" stroke="#000000" stroke-width="1" stroke-opacity="0"></use></g></g><g><use xlink:href="#c2olsmkJI5" opacity="1" fill="#b1060f" fill-opacity="1"></use><g><use xlink:href="#c2olsmkJI5" opacity="1" fill-opacity="0" stroke="#000000" stroke-width="1" stroke-opacity="0"></use></g></g><g><use xlink:href="#c3YxNLWM3" opacity="1" fill="#000000" fill-opacity="1"></use><g><use xlink:href="#c3YxNLWM3" opacity="1" fill-opacity="0" stroke="#000000" stroke-width="1" stroke-opacity="0"></use></g></g><g><use xlink:href="#cuBpQJ7eS" opacity="1" fill="#000000" fill-opacity="1"></use><g><use xlink:href="#cuBpQJ7eS" opacity="1" fill-opacity="0" stroke="#000000" stroke-width="1" stroke-opacity="0"></use></g></g><g><use xlink:href="#a9bTYHaZF" opacity="1" fill="#b1060f" fill-opacity="1"></use><g><use xlink:href="#a9bTYHaZF" opacity="1" fill-opacity="0" stroke="#000000" stroke-width="1" stroke-opacity="1"></use></g></g><g><use xlink:href="#c2vaTdEb6B" opacity="1" fill="#b1060f" fill-opacity="1"></use><g><use xlink:href="#c2vaTdEb6B" opacity="1" fill-opacity="0" stroke="#000000" stroke-width="1" stroke-opacity="1"></use></g></g><g><use xlink:href="#a1GHYxxWHV" opacity="1" fill="url(#gradientajyqrhMUN)"></use><g><use xlink:href="#a1GHYxxWHV" opacity="1" fill-opacity="0" stroke="#000000" stroke-width="1" stroke-opacity="0"></use></g></g><g><use xlink:href="#g7a7q4T1Id" opacity="1" fill="#e50914" fill-opacity="1"></use><g><use xlink:href="#g7a7q4T1Id" opacity="1" fill-opacity="0" stroke="#000000" stroke-width="1" stroke-opacity="0"></use></g></g><g><use xlink:href="#g34DpY9lkG" opacity="1" fill="#b1060f" fill-opacity="1"></use><g><use xlink:href="#g34DpY9lkG" opacity="1" fill-opacity="0" stroke="#000000" stroke-width="0" stroke-opacity="1"></use></g></g><g><use xlink:href="#afmZwXN2M" opacity="1" fill="#b1060f" fill-opacity="1"></use><g><use xlink:href="#afmZwXN2M" opacity="1" fill-opacity="0" stroke="#000000" stroke-width="0" stroke-opacity="1"></use></g></g><g><use xlink:href="#c1BSglSnrs" opacity="1" fill="#e50914" fill-opacity="1"></use><g><use xlink:href="#c1BSglSnrs" opacity="1" fill-opacity="0" stroke="#000000" stroke-width="0" stroke-opacity="0"></use></g></g></g></g></svg>